<svg version="1.1" id="Layer_1" xmlns="http://www.w3.org/2000/svg" xmlns:xlink="http://www.w3.org/1999/xlink" x="0px" y="0px"
	 viewBox="0 0 175.4 60" style="enable-background:new 0 0 175.4 60;" xml:space="preserve">
<style type="text/css">
	.st0{fill:#ffffff;}
</style>
<g>
	<path class="st0" d="M72.8,15.7h0.4c0.2,0,0.4,0.1,0.6,0.2c0.2,0.2,0.2,0.4,0.2,0.6v27c0,0.2-0.1,0.4-0.2,0.6
		c-0.2,0.2-0.4,0.2-0.6,0.2h-0.4c-0.2,0-0.4-0.1-0.6-0.2c-0.2-0.2-0.2-0.4-0.2-0.6v-27c0-0.2,0.1-0.4,0.2-0.6
		C72.4,15.8,72.6,15.7,72.8,15.7z"/>
	<path class="st0" d="M81.1,15.7h5.6c6.6,0,9.9,2.6,9.9,7.8c0,2-0.6,3.8-1.9,5.4c-1.3,1.6-3.3,2.4-6.1,2.4h-0.5l8.8,11.6
		c0.3,0.5,0.5,0.8,0.5,0.9c0,0.4-0.2,0.6-0.6,0.6h-0.8c-0.4,0-0.6-0.1-0.8-0.3l-9.5-12.5c-0.3-0.4-0.5-0.8-0.5-1.1
		c0-0.9,0.5-1.3,1.4-1.3h1.8c1.1,0,2.1-0.2,2.9-0.6c0.8-0.4,1.4-0.9,1.8-1.5c0.8-1.2,1.1-2.4,1.1-3.6c0-3.9-2.6-5.8-7.9-5.8h-5.2
		v25.8c0,0.2-0.1,0.4-0.2,0.6c-0.2,0.2-0.3,0.2-0.6,0.2h-0.4c-0.2,0-0.4-0.1-0.6-0.2c-0.2-0.2-0.2-0.4-0.2-0.6V17.6
		c0-0.7,0.1-1.2,0.3-1.5C80,15.8,80.5,15.7,81.1,15.7z"/>
	<path class="st0" d="M102.7,15.7h0.4c0.2,0,0.4,0.1,0.6,0.2c0.2,0.2,0.2,0.4,0.2,0.6v27c0,0.2-0.1,0.4-0.2,0.6
		c-0.2,0.2-0.4,0.2-0.6,0.2h-0.4c-0.2,0-0.4-0.1-0.6-0.2c-0.2-0.2-0.2-0.4-0.2-0.6v-27c0-0.2,0.1-0.4,0.2-0.6
		C102.3,15.8,102.5,15.7,102.7,15.7z"/>
	<path class="st0" d="M110.5,22.2c0-1.8,0.7-3.3,2.2-4.6c1.4-1.3,3.4-2,5.9-2c2.5,0,4.6,0.7,6.3,2c1.7,1.3,2.6,3.3,2.7,5.9
		c0,0.2-0.1,0.4-0.2,0.6c-0.2,0.2-0.4,0.3-0.6,0.3h-0.4c-0.2,0-0.4-0.1-0.5-0.2c-0.2-0.1-0.3-0.3-0.3-0.6c-0.1-2.1-0.8-3.6-2.1-4.5
		c-1.3-0.9-2.9-1.4-4.7-1.4c-2,0-3.5,0.5-4.6,1.4c-1.1,0.9-1.6,2-1.6,3.3c0,1.3,0.4,2.4,1.1,3.2c1.1,1.1,3,2.2,5.9,3.3
		c3.4,1.4,5.7,2.7,6.9,4.1c0.9,1,1.3,2.5,1.3,4.5c0,1.9-0.8,3.6-2.4,5c-1.6,1.4-3.8,2.1-6.7,2.1c-2.2,0-4.2-0.6-6.1-1.8
		c-1-0.6-1.8-1.5-2.5-2.6c-0.6-1.1-1-2.4-1-3.9c0-0.6,0.3-0.9,0.8-0.9h0.4c0.5,0,0.8,0.3,0.8,0.8c0.1,1.2,0.4,2.2,0.9,3.1
		c0.5,0.9,1.2,1.6,2,2c1.6,0.8,3.3,1.3,5.2,1.3c1.9,0,3.5-0.5,4.7-1.5c1.2-1,1.8-2.2,1.8-3.7c0-1.5-0.5-2.7-1.5-3.5
		c-0.8-0.7-1.7-1.2-2.6-1.7c-1.2-0.6-3.1-1.4-5.7-2.4c-2-0.9-3.4-1.9-4.3-3C111,25.4,110.5,23.9,110.5,22.2z"/>
	<path class="st0" d="M133.4,22.2c0-1.8,0.7-3.3,2.2-4.6c1.4-1.3,3.4-2,5.9-2c2.5,0,4.6,0.7,6.3,2c1.7,1.3,2.6,3.3,2.7,5.9
		c0,0.2-0.1,0.4-0.2,0.6c-0.2,0.2-0.4,0.3-0.6,0.3h-0.4c-0.2,0-0.4-0.1-0.5-0.2c-0.2-0.1-0.3-0.3-0.3-0.6c-0.1-2.1-0.8-3.6-2.1-4.5
		c-1.3-0.9-2.9-1.4-4.7-1.4c-2,0-3.5,0.5-4.6,1.4c-1.1,0.9-1.6,2-1.6,3.3c0,1.3,0.4,2.4,1.1,3.2c1.1,1.1,3,2.2,5.9,3.3
		c3.4,1.4,5.7,2.7,6.9,4.1c0.9,1,1.3,2.5,1.3,4.5c0,1.9-0.8,3.6-2.4,5c-1.6,1.4-3.8,2.1-6.7,2.1c-2.2,0-4.2-0.6-6.1-1.8
		c-1-0.6-1.8-1.5-2.5-2.6c-0.6-1.1-1-2.4-1-3.9c0-0.6,0.3-0.9,0.8-0.9h0.4c0.5,0,0.8,0.3,0.8,0.8c0.1,1.2,0.4,2.2,0.9,3.1
		c0.5,0.9,1.2,1.6,2,2c1.6,0.8,3.3,1.3,5.2,1.3s3.5-0.5,4.7-1.5c1.2-1,1.8-2.2,1.8-3.7c0-1.5-0.5-2.7-1.5-3.5
		c-0.8-0.7-1.7-1.2-2.6-1.7c-1.2-0.6-3.1-1.4-5.7-2.4c-2-0.9-3.4-1.9-4.3-3C133.8,25.4,133.4,23.9,133.4,22.2z"/>
	<path class="st0" d="M162.8,16.7c0.2-0.7,0.8-1.1,1.6-1.1s1.3,0.4,1.6,1.1l9.4,26.5c0,0.1,0,0.2,0,0.3c0,0.5-0.3,0.8-0.8,0.8h-0.5
		c-0.4,0-0.6-0.2-0.8-0.5l-8.9-25.4l-9,25.4c-0.2,0.4-0.4,0.5-0.8,0.5h-0.5c-0.5,0-0.8-0.3-0.8-0.8c0-0.1,0-0.2,0-0.3L162.8,16.7z"
		/>
</g>
<g>
	<g>
		<path class="st0" d="M36.8,15.5L36.8,15.5c0.5-0.8,0-1.9-1-1.9h-17c-1,0-1.5,1.1-1,1.9l20.4,27.9c0.2,0.3,0,0.6-0.3,0.6H24.2
			c-0.4,0-0.8,0.2-1,0.5l0,0c-0.5,0.8,0,1.9,1,1.9h17c1,0,1.5-1.1,1-1.9L21.7,16.6c-0.2-0.3,0-0.6,0.3-0.6h13.8
			C36.2,16,36.5,15.8,36.8,15.5z"/>
		<path class="st0" d="M20,45.9l22.1-30.2c0.6-0.9,0-2.1-1-2.1h0c-0.4,0-0.8,0.2-1,0.5L17.9,44.3c-0.6,0.9,0,2.1,1,2.1h0
			C19.4,46.4,19.7,46.2,20,45.9z"/>
	</g>
	<path class="st0" d="M30,2.4c15.2,0,27.6,12.4,27.6,27.6S45.2,57.6,30,57.6S2.4,45.2,2.4,30S14.8,2.4,30,2.4 M30,0
		C13.4,0,0,13.4,0,30s13.4,30,30,30s30-13.4,30-30S46.6,0,30,0L30,0z"/>
</g>
</svg>
